# xmcd
#
# Track frame offsets: 
#        150
#        18703
#        36498
#        56763
#        84376
#        103732
#        123519
#        138510
#        158033
#        177754
#        194421
#        212923
#
# Disc length: 3092 seconds
#
# Revision: 3
# Processed by: cddbd v1.5.2PL0 Copyright (c) Steve Scherf et al.
# Submitted via: ExactAudioCopy v1.0b3
#
DISCID=ae0c120c
DTITLE=Smokin' Joe Kubek and Bnois King - Have Blues, Will Travel
DYEAR=2010
DGENRE=Blues
TTITLE0=Have Blues, Will Travel
TTITLE1=Got You Out of My Blood
TTITLE2=Out of Body, Out of Mind
TTITLE3=RU4 Real?
TTITLE4=Payday in America
TTITLE5=Shadows in the Dark
TTITLE6=My Space or Yours?
TTITLE7=Sleeping With One Eye Open
TTITLE8=My Guitar
TTITLE9=One Step at a Time
TTITLE10=Wishful Thinking
TTITLE11=What a Sight to See
EXTD=YEAR: 2010
EXTT0=
EXTT1=
EXTT2=
EXTT3=
EXTT4=
EXTT5=
EXTT6=
EXTT7=
EXTT8=
EXTT9=
EXTT10=
EXTT11=
PLAYORDER=
